<svg xmlns="http://www.w3.org/2000/svg" viewBox="0 0 200 44" fill="none">
  <!-- Stylised heart / community icon -->
  <g transform="translate(2, 2) scale(0.8)">
    <path d="M22 8c-4 0-7.5 3-7.5 7 0 8 7.5 15 15 21 7.5-6 15-13 15-21 0-4-3.5-7-7.5-7-2.5 0-5 1.3-7.5 4-2.5-2.7-5-4-7.5-4z" fill="#2EC4B2"/>
    <circle cx="22" cy="10" r="5" fill="#2EC4B2"/>
    <circle cx="36" cy="14" r="4" fill="#22A699"/>
    <path d="M16 22c0-4 2.7-7 6-7s6 3 6 7c0 3-1 5.5-3 8-1.5 1.8-3 3.2-3 3.2S20 31.8 18.5 30C16.5 27.5 16 25 16 22z" fill="#2EC4B2"/>
    <path d="M30 24c0-3 2.2-5.5 5-5.5s5 2.5 5 5.5c0 2.5-1 4.5-2.5 6.5-1 1.3-2.5 2.5-2.5 2.5s-1.5-1.2-2.5-2.5C31 28.5 30 26.5 30 24z" fill="#22A699"/>
  </g>
  <!-- SCOONIE -->
  <text x="42" y="22" font-family="system-ui, -apple-system, 'Segoe UI', sans-serif" font-size="18" font-weight="800" letter-spacing="1.5" fill="#2D3A6E">SCOONIE</text>
  <!-- medical practice -->
  <text x="42" y="37" font-family="system-ui, -apple-system, 'Segoe UI', sans-serif" font-size="10" font-weight="500" letter-spacing="1" fill="#2EC4B2">medical practice</text>
</svg>
